<svg width="32" height="32" viewBox="0 0 32 32" fill="none" xmlns="http://www.w3.org/2000/svg">
<path d="M8 29.3333V5.33334C8 4.62609 8.28095 3.94782 8.78105 3.44772C9.28115 2.94762 9.95942 2.66667 10.6667 2.66667H21.3333C22.0406 2.66667 22.7189 2.94762 23.219 3.44772C23.719 3.94782 24 4.62609 24 5.33334V29.3333H8Z" stroke="url(#paint0_linear_379_88)" stroke-width="2" stroke-linecap="round" stroke-linejoin="round"/>
<path d="M8.00033 16H5.33366C4.62641 16 3.94814 16.281 3.44804 16.781C2.94794 17.2811 2.66699 17.9594 2.66699 18.6667V26.6667C2.66699 27.3739 2.94794 28.0522 3.44804 28.5523C3.94814 29.0524 4.62641 29.3333 5.33366 29.3333H8.00033" stroke="url(#paint1_linear_379_88)" stroke-width="2" stroke-linecap="round" stroke-linejoin="round"/>
<path d="M24 12H26.6667C27.3739 12 28.0522 12.281 28.5523 12.781C29.0524 13.2811 29.3333 13.9594 29.3333 14.6667V26.6667C29.3333 27.3739 29.0524 28.0522 28.5523 28.5523C28.0522 29.0524 27.3739 29.3333 26.6667 29.3333H24" stroke="url(#paint2_linear_379_88)" stroke-width="2" stroke-linecap="round" stroke-linejoin="round"/>
<path d="M13.333 8H18.6663" stroke="url(#paint3_linear_379_88)" stroke-width="2" stroke-linecap="round" stroke-linejoin="round"/>
<path d="M13.333 13.3333H18.6663" stroke="url(#paint4_linear_379_88)" stroke-width="2" stroke-linecap="round" stroke-linejoin="round"/>
<path d="M13.333 18.6667H18.6663" stroke="url(#paint5_linear_379_88)" stroke-width="2" stroke-linecap="round" stroke-linejoin="round"/>
<path d="M13.333 24H18.6663" stroke="url(#paint6_linear_379_88)" stroke-width="2" stroke-linecap="round" stroke-linejoin="round"/>
<defs>
<linearGradient id="paint0_linear_379_88" x1="16" y1="2.66667" x2="16" y2="29.3333" gradientUnits="userSpaceOnUse">
<stop stop-color="#605DCC"/>
<stop offset="1" stop-color="#4594DF"/>
</linearGradient>
<linearGradient id="paint1_linear_379_88" x1="5.33366" y1="16" x2="5.33366" y2="29.3333" gradientUnits="userSpaceOnUse">
<stop stop-color="#605DCC"/>
<stop offset="1" stop-color="#4594DF"/>
</linearGradient>
<linearGradient id="paint2_linear_379_88" x1="26.6667" y1="12" x2="26.6667" y2="29.3333" gradientUnits="userSpaceOnUse">
<stop stop-color="#605DCC"/>
<stop offset="1" stop-color="#4594DF"/>
</linearGradient>
<linearGradient id="paint3_linear_379_88" x1="15.9997" y1="8" x2="15.9997" y2="9" gradientUnits="userSpaceOnUse">
<stop stop-color="#605DCC"/>
<stop offset="1" stop-color="#4594DF"/>
</linearGradient>
<linearGradient id="paint4_linear_379_88" x1="15.9997" y1="13.3333" x2="15.9997" y2="14.3333" gradientUnits="userSpaceOnUse">
<stop stop-color="#605DCC"/>
<stop offset="1" stop-color="#4594DF"/>
</linearGradient>
<linearGradient id="paint5_linear_379_88" x1="15.9997" y1="18.6667" x2="15.9997" y2="19.6667" gradientUnits="userSpaceOnUse">
<stop stop-color="#605DCC"/>
<stop offset="1" stop-color="#4594DF"/>
</linearGradient>
<linearGradient id="paint6_linear_379_88" x1="15.9997" y1="24" x2="15.9997" y2="25" gradientUnits="userSpaceOnUse">
<stop stop-color="#605DCC"/>
<stop offset="1" stop-color="#4594DF"/>
</linearGradient>
</defs>
</svg>
