<svg width="33" height="33" viewBox="0 0 33 33" fill="none" xmlns="http://www.w3.org/2000/svg">
<path d="M16.5 30.25C24.0939 30.25 30.25 24.0939 30.25 16.5C30.25 8.90608 24.0939 2.75 16.5 2.75C8.90608 2.75 2.75 8.90608 2.75 16.5C2.75 24.0939 8.90608 30.25 16.5 30.25Z" stroke="url(#paint0_linear_350_71)" stroke-width="2" stroke-linecap="round" stroke-linejoin="round"/>
<path d="M16.5 2.75C12.9693 6.45721 11 11.3805 11 16.5C11 21.6195 12.9693 26.5428 16.5 30.25C20.0307 26.5428 22 21.6195 22 16.5C22 11.3805 20.0307 6.45721 16.5 2.75Z" stroke="url(#paint1_linear_350_71)" stroke-width="2" stroke-linecap="round" stroke-linejoin="round"/>
<path d="M2.75 16.5H30.25" stroke="url(#paint2_linear_350_71)" stroke-width="2" stroke-linecap="round" stroke-linejoin="round"/>
<defs>
<linearGradient id="paint0_linear_350_71" x1="16.5" y1="2.75" x2="16.5" y2="30.25" gradientUnits="userSpaceOnUse">
<stop stop-color="#605DCC"/>
<stop offset="1" stop-color="#4594DF"/>
</linearGradient>
<linearGradient id="paint1_linear_350_71" x1="16.5" y1="2.75" x2="16.5" y2="30.25" gradientUnits="userSpaceOnUse">
<stop stop-color="#605DCC"/>
<stop offset="1" stop-color="#4594DF"/>
</linearGradient>
<linearGradient id="paint2_linear_350_71" x1="16.5" y1="16.5" x2="16.5" y2="17.5" gradientUnits="userSpaceOnUse">
<stop stop-color="#605DCC"/>
<stop offset="1" stop-color="#4594DF"/>
</linearGradient>
</defs>
</svg>
