<svg width="33" height="33" viewBox="0 0 33 33" fill="none" xmlns="http://www.w3.org/2000/svg">
<path d="M16.5 4.125H6.875C6.14565 4.125 5.44618 4.41473 4.93046 4.93046C4.41473 5.44618 4.125 6.14565 4.125 6.875V26.125C4.125 26.8543 4.41473 27.5538 4.93046 28.0695C5.44618 28.5853 6.14565 28.875 6.875 28.875H26.125C26.8543 28.875 27.5538 28.5853 28.0695 28.0695C28.5853 27.5538 28.875 26.8543 28.875 26.125V16.5" stroke="url(#paint0_linear_338_65)" stroke-width="2" stroke-linecap="round" stroke-linejoin="round"/>
<path d="M25.2653 3.60938C25.8123 3.06237 26.5542 2.75507 27.3278 2.75507C28.1014 2.75507 28.8433 3.06237 29.3903 3.60938C29.9373 4.15639 30.2446 4.89829 30.2446 5.67188C30.2446 6.44547 29.9373 7.18737 29.3903 7.73438L16.9974 20.1286C16.6709 20.4548 16.2675 20.6936 15.8245 20.823L11.8741 21.978C11.7558 22.0125 11.6304 22.0146 11.511 21.984C11.3916 21.9534 11.2827 21.8913 11.1955 21.8041C11.1084 21.717 11.0462 21.608 11.0157 21.4886C10.9851 21.3692 10.9871 21.2438 11.0216 21.1255L12.1766 17.1751C12.3066 16.7325 12.5459 16.3296 12.8724 16.0036L25.2653 3.60938Z" stroke="url(#paint1_linear_338_65)" stroke-width="2" stroke-linecap="round" stroke-linejoin="round"/>
<defs>
<linearGradient id="paint0_linear_338_65" x1="16.5" y1="4.125" x2="16.5" y2="28.875" gradientUnits="userSpaceOnUse">
<stop stop-color="#605DCC"/>
<stop offset="1" stop-color="#4594DF"/>
</linearGradient>
<linearGradient id="paint1_linear_338_65" x1="20.6194" y1="2.75507" x2="20.6194" y2="22.0055" gradientUnits="userSpaceOnUse">
<stop stop-color="#605DCC"/>
<stop offset="1" stop-color="#4594DF"/>
</linearGradient>
</defs>
</svg>
